<svg class="main-svg" xmlns="http://www.w3.org/2000/svg" xmlns:xlink="http://www.w3.org/1999/xlink" width="800" height="800" style="" viewBox="0 0 800 800"><rect x="0" y="0" width="800" height="800" style="fill: rgb(255, 255, 255); fill-opacity: 1;"/><defs id="defs-27aeea"><g class="clips"><clipPath id="clip27aeeaxyplot" class="plotclip"><rect width="632" height="620"/></clipPath><clipPath class="axesclip" id="clip27aeeax"><rect x="88" y="0" width="632" height="800"/></clipPath><clipPath class="axesclip" id="clip27aeeay"><rect x="0" y="100" width="800" height="620"/></clipPath><clipPath class="axesclip" id="clip27aeeaxy"><rect x="88" y="100" width="632" height="620"/></clipPath></g><g class="gradients"/><g class="patterns"/></defs><g class="bglayer"><rect class="bg" x="88" y="100" width="632" height="620" style="fill: rgb(229, 236, 246); fill-opacity: 1; stroke-width: 0;"/></g><g class="layer-below"><g class="imagelayer"/><g class="shapelayer"/></g><g class="cartesianlayer"><g class="subplot xy"><g class="layer-subplot"><g class="shapelayer"/><g class="imagelayer"/></g><g class="minor-gridlayer"><g class="x"/><g class="y"/></g><g class="gridlayer"><g class="x"><path class="xgrid crisp" transform="translate(199.20999999999998,0)" d="M0,100v620" style="stroke: rgb(255, 255, 255); stroke-opacity: 1; stroke-width: 1px;"/><path class="xgrid crisp" transform="translate(311.75,0)" d="M0,100v620" style="stroke: rgb(255, 255, 255); stroke-opacity: 1; stroke-width: 1px;"/><path class="xgrid crisp" transform="translate(424.3,0)" d="M0,100v620" style="stroke: rgb(255, 255, 255); stroke-opacity: 1; stroke-width: 1px;"/><path class="xgrid crisp" transform="translate(536.8399999999999,0)" d="M0,100v620" style="stroke: rgb(255, 255, 255); stroke-opacity: 1; stroke-width: 1px;"/><path class="xgrid crisp" transform="translate(649.39,0)" d="M0,100v620" style="stroke: rgb(255, 255, 255); stroke-opacity: 1; stroke-width: 1px;"/></g><g class="y"><path class="ygrid crisp" transform="translate(0,709.76)" d="M88,0h632" style="stroke: rgb(255, 255, 255); stroke-opacity: 1; stroke-width: 1px;"/><path class="ygrid crisp" transform="translate(0,630.55)" d="M88,0h632" style="stroke: rgb(255, 255, 255); stroke-opacity: 1; stroke-width: 1px;"/><path class="ygrid crisp" transform="translate(0,551.3399999999999)" d="M88,0h632" style="stroke: rgb(255, 255, 255); stroke-opacity: 1; stroke-width: 1px;"/><path class="ygrid crisp" transform="translate(0,472.12)" d="M88,0h632" style="stroke: rgb(255, 255, 255); stroke-opacity: 1; stroke-width: 1px;"/><path class="ygrid crisp" transform="translate(0,392.91)" d="M88,0h632" style="stroke: rgb(255, 255, 255); stroke-opacity: 1; stroke-width: 1px;"/><path class="ygrid crisp" transform="translate(0,313.7)" d="M88,0h632" style="stroke: rgb(255, 255, 255); stroke-opacity: 1; stroke-width: 1px;"/><path class="ygrid crisp" transform="translate(0,234.48)" d="M88,0h632" style="stroke: rgb(255, 255, 255); stroke-opacity: 1; stroke-width: 1px;"/><path class="ygrid crisp" transform="translate(0,155.27)" d="M88,0h632" style="stroke: rgb(255, 255, 255); stroke-opacity: 1; stroke-width: 1px;"/></g></g><g class="zerolinelayer"/><path class="xlines-below"/><path class="ylines-below"/><g class="overlines-below"/><g class="xaxislayer-below"/><g class="yaxislayer-below"/><g class="overaxes-below"/><g class="plot" transform="translate(88,100)" clip-path="url(#clip27aeeaxyplot)"><g class="scatterlayer mlayer"><g class="trace scatter trace2c91f9" style="stroke-miterlimit: 2; opacity: 1;"><g class="fills"/><g class="errorbars"/><g class="lines"/><g class="points"><path class="point" transform="translate(131.47,308.75)" d="M8.19,0A8.19,8.19 0 1,1 0,-8.19A8.19,8.19 0 0,1 8.19,0Z" style="opacity: 0.7; stroke-width: 1px; fill: rgb(99, 110, 250); fill-opacity: 1; stroke: rgb(255, 255, 255); stroke-opacity: 1;"/><path class="point" transform="translate(131.47,182.01)" d="M7.98,0A7.98,7.98 0 1,1 0,-7.98A7.98,7.98 0 0,1 7.98,0Z" style="opacity: 0.7; stroke-width: 1px; fill: rgb(99, 110, 250); fill-opacity: 1; stroke: rgb(255, 255, 255); stroke-opacity: 1;"/><path class="point" transform="translate(140.47,467.18)" d="M5.34,0A5.34,5.34 0 1,1 0,-5.34A5.34,5.34 0 0,1 5.34,0Z" style="opacity: 0.7; stroke-width: 1px; fill: rgb(99, 110, 250); fill-opacity: 1; stroke: rgb(255, 255, 255); stroke-opacity: 1;"/><path class="point" transform="translate(226,217.66)" d="M11.69,0A11.69,11.69 0 1,1 0,-11.69A11.69,11.69 0 0,1 11.69,0Z" style="opacity: 0.7; stroke-width: 1px; fill: rgb(99, 110, 250); fill-opacity: 1; stroke: rgb(255, 255, 255); stroke-opacity: 1;"/><path class="point" transform="translate(257.52,423.61)" d="M8.89,0A8.89,8.89 0 1,1 0,-8.89A8.89,8.89 0 0,1 8.89,0Z" style="opacity: 0.7; stroke-width: 1px; fill: rgb(99, 110, 250); fill-opacity: 1; stroke: rgb(255, 255, 255); stroke-opacity: 1;"/><path class="point" transform="translate(257.52,364.2)" d="M11,0A11,11 0 1,1 0,-11A11,11 0 0,1 11,0Z" style="opacity: 0.7; stroke-width: 1px; fill: rgb(99, 110, 250); fill-opacity: 1; stroke: rgb(255, 255, 255); stroke-opacity: 1;"/><path class="point" transform="translate(259.77,586)" d="M2.5,0A2.5,2.5 0 1,1 0,-2.5A2.5,2.5 0 0,1 2.5,0Z" style="opacity: 0.7; stroke-width: 1px; fill: rgb(99, 110, 250); fill-opacity: 1; stroke: rgb(255, 255, 255); stroke-opacity: 1;"/><path class="point" transform="translate(271.02,253.3)" d="M13.6,0A13.6,13.6 0 1,1 0,-13.6A13.6,13.6 0 0,1 13.6,0Z" style="opacity: 0.7; stroke-width: 1px; fill: rgb(99, 110, 250); fill-opacity: 1; stroke: rgb(255, 255, 255); stroke-opacity: 1;"/><path class="point" transform="translate(282.28,300.83)" d="M11.59,0A11.59,11.59 0 1,1 0,-11.59A11.59,11.59 0 0,1 11.59,0Z" style="opacity: 0.7; stroke-width: 1px; fill: rgb(99, 110, 250); fill-opacity: 1; stroke: rgb(255, 255, 255); stroke-opacity: 1;"/><path class="point" transform="translate(293.53,296.87)" d="M12.12,0A12.12,12.12 0 1,1 0,-12.12A12.12,12.12 0 0,1 12.12,0Z" style="opacity: 0.7; stroke-width: 1px; fill: rgb(99, 110, 250); fill-opacity: 1; stroke: rgb(255, 255, 255); stroke-opacity: 1;"/><path class="point" transform="translate(295.78,249.34)" d="M13.27,0A13.27,13.27 0 1,1 0,-13.27A13.27,13.27 0 0,1 13.27,0Z" style="opacity: 0.7; stroke-width: 1px; fill: rgb(99, 110, 250); fill-opacity: 1; stroke: rgb(255, 255, 255); stroke-opacity: 1;"/><path class="point" transform="translate(300.28,249.34)" d="M12.29,0A12.29,12.29 0 1,1 0,-12.29A12.29,12.29 0 0,1 12.29,0Z" style="opacity: 0.7; stroke-width: 1px; fill: rgb(99, 110, 250); fill-opacity: 1; stroke: rgb(255, 255, 255); stroke-opacity: 1;"/><path class="point" transform="translate(327.29,296.87)" d="M12.01,0A12.01,12.01 0 1,1 0,-12.01A12.01,12.01 0 0,1 12.01,0Z" style="opacity: 0.7; stroke-width: 1px; fill: rgb(99, 110, 250); fill-opacity: 1; stroke: rgb(255, 255, 255); stroke-opacity: 1;"/><path class="point" transform="translate(336.3,292.91)" d="M11.6,0A11.6,11.6 0 1,1 0,-11.6A11.6,11.6 0 0,1 11.6,0Z" style="opacity: 0.7; stroke-width: 1px; fill: rgb(99, 110, 250); fill-opacity: 1; stroke: rgb(255, 255, 255); stroke-opacity: 1;"/><path class="point" transform="translate(365.56,39.43)" d="M7.54,0A7.54,7.54 0 1,1 0,-7.54A7.54,7.54 0 0,1 7.54,0Z" style="opacity: 0.7; stroke-width: 1px; fill: rgb(99, 110, 250); fill-opacity: 1; stroke: rgb(255, 255, 255); stroke-opacity: 1;"/><path class="point" transform="translate(385.82,134.48)" d="M9.72,0A9.72,9.72 0 1,1 0,-9.72A9.72,9.72 0 0,1 9.72,0Z" style="opacity: 0.7; stroke-width: 1px; fill: rgb(99, 110, 250); fill-opacity: 1; stroke: rgb(255, 255, 255); stroke-opacity: 1;"/><path class="point" transform="translate(419.58,245.38)" d="M10.07,0A10.07,10.07 0 1,1 0,-10.07A10.07,10.07 0 0,1 10.07,0Z" style="opacity: 0.7; stroke-width: 1px; fill: rgb(99, 110, 250); fill-opacity: 1; stroke: rgb(255, 255, 255); stroke-opacity: 1;"/><path class="point" transform="translate(428.58,479.06)" d="M6.26,0A6.26,6.26 0 1,1 0,-6.26A6.26,6.26 0 0,1 6.26,0Z" style="opacity: 0.7; stroke-width: 1px; fill: rgb(99, 110, 250); fill-opacity: 1; stroke: rgb(255, 255, 255); stroke-opacity: 1;"/><path class="point" transform="translate(433.09,542.43)" d="M2.47,0A2.47,2.47 0 1,1 0,-2.47A2.47,2.47 0 0,1 2.47,0Z" style="opacity: 0.7; stroke-width: 1px; fill: rgb(99, 110, 250); fill-opacity: 1; stroke: rgb(255, 255, 255); stroke-opacity: 1;"/><path class="point" transform="translate(433.09,514.71)" d="M4.45,0A4.45,4.45 0 1,1 0,-4.45A4.45,4.45 0 0,1 4.45,0Z" style="opacity: 0.7; stroke-width: 1px; fill: rgb(99, 110, 250); fill-opacity: 1; stroke: rgb(255, 255, 255); stroke-opacity: 1;"/><path class="point" transform="translate(446.59,407.77)" d="M7.58,0A7.58,7.58 0 1,1 0,-7.58A7.58,7.58 0 0,1 7.58,0Z" style="opacity: 0.7; stroke-width: 1px; fill: rgb(99, 110, 250); fill-opacity: 1; stroke: rgb(255, 255, 255); stroke-opacity: 1;"/><path class="point" transform="translate(453.34,225.58)" d="M9.72,0A9.72,9.72 0 1,1 0,-9.72A9.72,9.72 0 0,1 9.72,0Z" style="opacity: 0.7; stroke-width: 1px; fill: rgb(99, 110, 250); fill-opacity: 1; stroke: rgb(255, 255, 255); stroke-opacity: 1;"/><path class="point" transform="translate(563.64,233.5)" d="M4.2,0A4.2,4.2 0 1,1 0,-4.2A4.2,4.2 0 0,1 4.2,0Z" style="opacity: 0.7; stroke-width: 1px; fill: rgb(99, 110, 250); fill-opacity: 1; stroke: rgb(255, 255, 255); stroke-opacity: 1;"/><path class="point" transform="translate(36.93,292.91)" d="M4.77,0A4.77,4.77 0 1,1 0,-4.77A4.77,4.77 0 0,1 4.77,0Z" style="opacity: 0.7; stroke-width: 1px; fill: rgb(99, 110, 250); fill-opacity: 1; stroke: rgb(255, 255, 255); stroke-opacity: 1;"/><path class="point" transform="translate(217,217.66)" d="M10.93,0A10.93,10.93 0 1,1 0,-10.93A10.93,10.93 0 0,1 10.93,0Z" style="opacity: 0.7; stroke-width: 1px; fill: rgb(99, 110, 250); fill-opacity: 1; stroke: rgb(255, 255, 255); stroke-opacity: 1;"/><path class="point" transform="translate(275.52,447.38)" d="M8.48,0A8.48,8.48 0 1,1 0,-8.48A8.48,8.48 0 0,1 8.48,0Z" style="opacity: 0.7; stroke-width: 1px; fill: rgb(99, 110, 250); fill-opacity: 1; stroke: rgb(255, 255, 255); stroke-opacity: 1;"/><path class="point" transform="translate(289.03,233.5)" d="M12.77,0A12.77,12.77 0 1,1 0,-12.77A12.77,12.77 0 0,1 12.77,0Z" style="opacity: 0.7; stroke-width: 1px; fill: rgb(99, 110, 250); fill-opacity: 1; stroke: rgb(255, 255, 255); stroke-opacity: 1;"/><path class="point" transform="translate(302.53,245.38)" d="M13.15,0A13.15,13.15 0 1,1 0,-13.15A13.15,13.15 0 0,1 13.15,0Z" style="opacity: 0.7; stroke-width: 1px; fill: rgb(99, 110, 250); fill-opacity: 1; stroke: rgb(255, 255, 255); stroke-opacity: 1;"/><path class="point" transform="translate(318.29,336.48)" d="M11.43,0A11.43,11.43 0 1,1 0,-11.43A11.43,11.43 0 0,1 11.43,0Z" style="opacity: 0.7; stroke-width: 1px; fill: rgb(99, 110, 250); fill-opacity: 1; stroke: rgb(255, 255, 255); stroke-opacity: 1;"/><path class="point" transform="translate(327.29,296.87)" d="M9.97,0A9.97,9.97 0 1,1 0,-9.97A9.97,9.97 0 0,1 9.97,0Z" style="opacity: 0.7; stroke-width: 1px; fill: rgb(99, 110, 250); fill-opacity: 1; stroke: rgb(255, 255, 255); stroke-opacity: 1;"/><path class="point" transform="translate(334.05,229.54)" d="M12.52,0A12.52,12.52 0 1,1 0,-12.52A12.52,12.52 0 0,1 12.52,0Z" style="opacity: 0.7; stroke-width: 1px; fill: rgb(99, 110, 250); fill-opacity: 1; stroke: rgb(255, 255, 255); stroke-opacity: 1;"/><path class="point" transform="translate(352.05,94.88)" d="M8.75,0A8.75,8.75 0 1,1 0,-8.75A8.75,8.75 0 0,1 8.75,0Z" style="opacity: 0.7; stroke-width: 1px; fill: rgb(99, 110, 250); fill-opacity: 1; stroke: rgb(255, 255, 255); stroke-opacity: 1;"/><path class="point" transform="translate(451.09,419.65)" d="M7.11,0A7.11,7.11 0 1,1 0,-7.11A7.11,7.11 0 0,1 7.11,0Z" style="opacity: 0.7; stroke-width: 1px; fill: rgb(99, 110, 250); fill-opacity: 1; stroke: rgb(255, 255, 255); stroke-opacity: 1;"/><path class="point" transform="translate(453.34,296.87)" d="M9.15,0A9.15,9.15 0 1,1 0,-9.15A9.15,9.15 0 0,1 9.15,0Z" style="opacity: 0.7; stroke-width: 1px; fill: rgb(99, 110, 250); fill-opacity: 1; stroke: rgb(255, 255, 255); stroke-opacity: 1;"/><path class="point" transform="translate(228.26,209.74)" d="M11.22,0A11.22,11.22 0 1,1 0,-11.22A11.22,11.22 0 0,1 11.22,0Z" style="opacity: 0.7; stroke-width: 1px; fill: rgb(99, 110, 250); fill-opacity: 1; stroke: rgb(255, 255, 255); stroke-opacity: 1;"/><path class="point" transform="translate(257.52,451.34)" d="M8.53,0A8.53,8.53 0 1,1 0,-8.53A8.53,8.53 0 0,1 8.53,0Z" style="opacity: 0.7; stroke-width: 1px; fill: rgb(99, 110, 250); fill-opacity: 1; stroke: rgb(255, 255, 255); stroke-opacity: 1;"/><path class="point" transform="translate(282.28,241.42)" d="M12.22,0A12.22,12.22 0 1,1 0,-12.22A12.22,12.22 0 0,1 12.22,0Z" style="opacity: 0.7; stroke-width: 1px; fill: rgb(99, 110, 250); fill-opacity: 1; stroke: rgb(255, 255, 255); stroke-opacity: 1;"/><path class="point" transform="translate(298.03,253.3)" d="M14.14,0A14.14,14.14 0 1,1 0,-14.14A14.14,14.14 0 0,1 14.14,0Z" style="opacity: 0.7; stroke-width: 1px; fill: rgb(99, 110, 250); fill-opacity: 1; stroke: rgb(255, 255, 255); stroke-opacity: 1;"/><path class="point" transform="translate(304.79,253.3)" d="M11.79,0A11.79,11.79 0 1,1 0,-11.79A11.79,11.79 0 0,1 11.79,0Z" style="opacity: 0.7; stroke-width: 1px; fill: rgb(99, 110, 250); fill-opacity: 1; stroke: rgb(255, 255, 255); stroke-opacity: 1;"/><path class="point" transform="translate(304.79,209.74)" d="M11.89,0A11.89,11.89 0 1,1 0,-11.89A11.89,11.89 0 0,1 11.89,0Z" style="opacity: 0.7; stroke-width: 1px; fill: rgb(99, 110, 250); fill-opacity: 1; stroke: rgb(255, 255, 255); stroke-opacity: 1;"/><path class="point" transform="translate(379.06,403.81)" d="M9.17,0A9.17,9.17 0 1,1 0,-9.17A9.17,9.17 0 0,1 9.17,0Z" style="opacity: 0.7; stroke-width: 1px; fill: rgb(99, 110, 250); fill-opacity: 1; stroke: rgb(255, 255, 255); stroke-opacity: 1;"/><path class="point" transform="translate(381.32,98.84)" d="M8.63,0A8.63,8.63 0 1,1 0,-8.63A8.63,8.63 0 0,1 8.63,0Z" style="opacity: 0.7; stroke-width: 1px; fill: rgb(99, 110, 250); fill-opacity: 1; stroke: rgb(255, 255, 255); stroke-opacity: 1;"/><path class="point" transform="translate(381.32,86.96)" d="M8.98,0A8.98,8.98 0 1,1 0,-8.98A8.98,8.98 0 0,1 8.98,0Z" style="opacity: 0.7; stroke-width: 1px; fill: rgb(99, 110, 250); fill-opacity: 1; stroke: rgb(255, 255, 255); stroke-opacity: 1;"/><path class="point" transform="translate(397.07,106.76)" d="M9.36,0A9.36,9.36 0 1,1 0,-9.36A9.36,9.36 0 0,1 9.36,0Z" style="opacity: 0.7; stroke-width: 1px; fill: rgb(99, 110, 250); fill-opacity: 1; stroke: rgb(255, 255, 255); stroke-opacity: 1;"/><path class="point" transform="translate(491.61,419.65)" d="M5.51,0A5.51,5.51 0 1,1 0,-5.51A5.51,5.51 0 0,1 5.51,0Z" style="opacity: 0.7; stroke-width: 1px; fill: rgb(99, 110, 250); fill-opacity: 1; stroke: rgb(255, 255, 255); stroke-opacity: 1;"/><path class="point" transform="translate(518.62,197.86)" d="M5.99,0A5.99,5.99 0 1,1 0,-5.99A5.99,5.99 0 0,1 5.99,0Z" style="opacity: 0.7; stroke-width: 1px; fill: rgb(99, 110, 250); fill-opacity: 1; stroke: rgb(255, 255, 255); stroke-opacity: 1;"/><path class="point" transform="translate(520.87,356.28)" d="M5.28,0A5.28,5.28 0 1,1 0,-5.28A5.28,5.28 0 0,1 5.28,0Z" style="opacity: 0.7; stroke-width: 1px; fill: rgb(99, 110, 250); fill-opacity: 1; stroke: rgb(255, 255, 255); stroke-opacity: 1;"/><path class="point" transform="translate(525.37,467.18)" d="M1.62,0A1.62,1.62 0 1,1 0,-1.62A1.62,1.62 0 0,1 1.62,0Z" style="opacity: 0.7; stroke-width: 1px; fill: rgb(99, 110, 250); fill-opacity: 1; stroke: rgb(255, 255, 255); stroke-opacity: 1;"/><path class="point" transform="translate(597.4,225.58)" d="M1.07,0A1.07,1.07 0 1,1 0,-1.07A1.07,1.07 0 0,1 1.07,0Z" style="opacity: 0.7; stroke-width: 1px; fill: rgb(99, 110, 250); fill-opacity: 1; stroke: rgb(255, 255, 255); stroke-opacity: 1;"/></g><g class="text"/></g></g></g><g class="overplot"/><path class="xlines-above crisp" d="M0,0" style="fill: none;"/><path class="ylines-above crisp" d="M0,0" style="fill: none;"/><g class="overlines-above"/><g class="xaxislayer-above"><g class="xtick"><text text-anchor="middle" x="0" y="733" transform="translate(199.20999999999998,0)" style="font-family: 'Open Sans', verdana, arial, sans-serif; font-size: 12px; fill: rgb(42, 63, 95); fill-opacity: 1; white-space: pre; opacity: 1;">−124.046</text></g><g class="xtick"><text text-anchor="middle" x="0" y="733" style="font-family: 'Open Sans', verdana, arial, sans-serif; font-size: 12px; fill: rgb(42, 63, 95); fill-opacity: 1; white-space: pre; opacity: 1;" transform="translate(311.75,0)">−124.0455</text></g><g class="xtick"><text text-anchor="middle" x="0" y="733" style="font-family: 'Open Sans', verdana, arial, sans-serif; font-size: 12px; fill: rgb(42, 63, 95); fill-opacity: 1; white-space: pre; opacity: 1;" transform="translate(424.3,0)">−124.045</text></g><g class="xtick"><text text-anchor="middle" x="0" y="733" style="font-family: 'Open Sans', verdana, arial, sans-serif; font-size: 12px; fill: rgb(42, 63, 95); fill-opacity: 1; white-space: pre; opacity: 1;" transform="translate(536.8399999999999,0)">−124.0445</text></g><g class="xtick"><text text-anchor="middle" x="0" y="733" style="font-family: 'Open Sans', verdana, arial, sans-serif; font-size: 12px; fill: rgb(42, 63, 95); fill-opacity: 1; white-space: pre; opacity: 1;" transform="translate(649.39,0)">−124.044</text></g></g><g class="yaxislayer-above"><g class="ytick"><text text-anchor="end" x="87" y="4.199999999999999" transform="translate(0,709.76)" style="font-family: 'Open Sans', verdana, arial, sans-serif; font-size: 12px; fill: rgb(42, 63, 95); fill-opacity: 1; white-space: pre; opacity: 1;">48.8208</text></g><g class="ytick"><text text-anchor="end" x="87" y="4.199999999999999" style="font-family: 'Open Sans', verdana, arial, sans-serif; font-size: 12px; fill: rgb(42, 63, 95); fill-opacity: 1; white-space: pre; opacity: 1;" transform="translate(0,630.55)">48.821</text></g><g class="ytick"><text text-anchor="end" x="87" y="4.199999999999999" style="font-family: 'Open Sans', verdana, arial, sans-serif; font-size: 12px; fill: rgb(42, 63, 95); fill-opacity: 1; white-space: pre; opacity: 1;" transform="translate(0,551.3399999999999)">48.8212</text></g><g class="ytick"><text text-anchor="end" x="87" y="4.199999999999999" style="font-family: 'Open Sans', verdana, arial, sans-serif; font-size: 12px; fill: rgb(42, 63, 95); fill-opacity: 1; white-space: pre; opacity: 1;" transform="translate(0,472.12)">48.8214</text></g><g class="ytick"><text text-anchor="end" x="87" y="4.199999999999999" style="font-family: 'Open Sans', verdana, arial, sans-serif; font-size: 12px; fill: rgb(42, 63, 95); fill-opacity: 1; white-space: pre; opacity: 1;" transform="translate(0,392.91)">48.8216</text></g><g class="ytick"><text text-anchor="end" x="87" y="4.199999999999999" style="font-family: 'Open Sans', verdana, arial, sans-serif; font-size: 12px; fill: rgb(42, 63, 95); fill-opacity: 1; white-space: pre; opacity: 1;" transform="translate(0,313.7)">48.8218</text></g><g class="ytick"><text text-anchor="end" x="87" y="4.199999999999999" style="font-family: 'Open Sans', verdana, arial, sans-serif; font-size: 12px; fill: rgb(42, 63, 95); fill-opacity: 1; white-space: pre; opacity: 1;" transform="translate(0,234.48)">48.822</text></g><g class="ytick"><text text-anchor="end" x="87" y="4.199999999999999" style="font-family: 'Open Sans', verdana, arial, sans-serif; font-size: 12px; fill: rgb(42, 63, 95); fill-opacity: 1; white-space: pre; opacity: 1;" transform="translate(0,155.27)">48.8222</text></g></g><g class="overaxes-above"/></g></g><g class="polarlayer"/><g class="smithlayer"/><g class="ternarylayer"/><g class="geolayer"/><g class="funnelarealayer"/><g class="pielayer"/><g class="iciclelayer"/><g class="treemaplayer"/><g class="sunburstlayer"/><g class="glimages"/><defs id="topdefs-27aeea"><g class="clips"/></defs><g class="layer-above"><g class="imagelayer"/><g class="shapelayer"><g class="shape-group" data-index="0" clip-path="url(#clip27aeeax)"><path data-index="0" fill-rule="evenodd" d="M402.47,720L402.47,100" style="opacity: 1; stroke: rgb(42, 63, 95); stroke-opacity: 1; fill: rgb(0, 0, 0); fill-opacity: 0; stroke-width: 2px;"/></g><g class="shape-group" data-index="1" clip-path="url(#clip27aeeay)"><path data-index="1" fill-rule="evenodd" d="M88,364.43L720,364.43" style="opacity: 1; stroke: rgb(42, 63, 95); stroke-opacity: 1; fill: rgb(0, 0, 0); fill-opacity: 0; stroke-width: 2px;"/></g></g></g><g class="infolayer"><g class="g-gtitle"><text class="gtitle" x="40" y="50" text-anchor="start" dy="0em" style="font-family: 'Open Sans', verdana, arial, sans-serif; font-size: 17px; fill: rgb(42, 63, 95); opacity: 1; font-weight: normal; white-space: pre;">COT: lon=-124.04510 lat=48.82167</text></g><g class="g-xtitle"><text class="xtitle" x="404" y="759.8" text-anchor="middle" style="font-family: 'Open Sans', verdana, arial, sans-serif; font-size: 14px; fill: rgb(42, 63, 95); opacity: 1; font-weight: normal; white-space: pre;">x</text></g><g class="g-ytitle" transform="translate(1.4404296875,0)"><text class="ytitle" transform="rotate(-90,12.559375000000003,410)" x="12.559375000000003" y="410" text-anchor="middle" style="font-family: 'Open Sans', verdana, arial, sans-serif; font-size: 14px; fill: rgb(42, 63, 95); opacity: 1; font-weight: normal; white-space: pre;">y</text></g></g></svg>